<svg width="23" height="22" viewBox="0 0 23 22" fill="none" xmlns="http://www.w3.org/2000/svg">
<path d="M8.2115 21.4037C7.44483 21.4037 6.76533 21.1877 6.173 20.7558C5.58083 20.3238 5.14692 19.7513 4.87125 19.0385C4.63658 19.382 4.32792 19.6464 3.94525 19.8318C3.56258 20.0169 3.16417 20.1095 2.75 20.1095C1.977 20.1095 1.32542 19.8422 0.79525 19.3075C0.265083 18.7728 0 18.1235 0 17.3595C0 16.6942 0.22375 16.0917 0.67125 15.552C1.11858 15.0122 1.68458 14.7198 2.36925 14.675C2.08458 14.3545 1.86217 13.9923 1.702 13.5885C1.54167 13.1847 1.4615 12.7616 1.4615 12.3192C1.4615 11.7086 1.61475 11.136 1.92125 10.6015C2.22758 10.0672 2.65708 9.6295 3.20975 9.2885C3.27408 9.51217 3.361 9.75142 3.4705 10.0062C3.58 10.2611 3.70075 10.4847 3.83275 10.677C3.56092 10.886 3.35192 11.1362 3.20575 11.4275C3.05958 11.719 2.9865 12.0246 2.9865 12.3442C2.9865 13.3289 3.36983 13.9504 4.1365 14.2087C4.90317 14.4671 5.66025 14.6693 6.40775 14.8155L6.75775 15.4135C6.57442 15.9468 6.42083 16.3994 6.297 16.7712C6.17333 17.1429 6.1115 17.482 6.1115 17.7885C6.1115 18.35 6.314 18.8413 6.719 19.2625C7.12383 19.6837 7.61817 19.8943 8.202 19.8943C8.87383 19.8943 9.42767 19.6189 9.8635 19.0683C10.2993 18.5176 10.657 17.867 10.9365 17.1165C11.216 16.3658 11.4314 15.6004 11.5828 14.8202C11.7341 14.0401 11.8578 13.4224 11.954 12.9672L13.423 13.3672C13.2795 14.0724 13.1058 14.8859 12.902 15.8077C12.6982 16.7296 12.41 17.6055 12.0375 18.4355C11.665 19.2657 11.1749 19.9679 10.5673 20.5422C9.95958 21.1166 9.17433 21.4037 8.2115 21.4037ZM2.75 18.6097C3.0975 18.6097 3.39275 18.4882 3.63575 18.2452C3.87858 18.0022 4 17.707 4 17.3595C4 17.0122 3.87858 16.717 3.63575 16.474C3.39275 16.231 3.0975 16.1095 2.75 16.1095C2.40267 16.1095 2.1075 16.231 1.8645 16.474C1.6215 16.717 1.5 17.0122 1.5 17.3595C1.5 17.707 1.6215 18.0022 1.8645 18.2452C2.1075 18.4882 2.40267 18.6097 2.75 18.6097ZM9.3405 14.573C8.61867 13.9282 7.96125 13.3259 7.36825 12.7662C6.77525 12.2067 6.26425 11.6607 5.83525 11.128C5.40608 10.5953 5.07625 10.0626 4.84575 9.52975C4.61525 8.99708 4.5 8.44358 4.5 7.86925C4.5 6.85625 4.84675 6.003 5.54025 5.3095C6.23375 4.616 7.087 4.26925 8.1 4.26925C8.22433 4.26925 8.33558 4.27667 8.43375 4.2915C8.53175 4.30617 8.63008 4.32308 8.72875 4.34225C8.65575 4.18208 8.59942 4.01967 8.55975 3.855C8.51992 3.6905 8.5 3.51767 8.5 3.3365C8.5 2.57267 8.76725 1.92342 9.30175 1.38875C9.83625 0.853916 10.4853 0.586498 11.2488 0.586498C12.0124 0.586498 12.6618 0.853916 13.197 1.38875C13.7323 1.92342 14 2.57267 14 3.3365C14 3.51983 13.9801 3.69067 13.9402 3.849C13.9006 4.00733 13.8442 4.16667 13.7712 4.327C13.8699 4.30783 13.9683 4.29342 14.0663 4.28375C14.1644 4.27408 14.2757 4.26925 14.4 4.26925C15.2782 4.26925 16.0336 4.53717 16.6663 5.073C17.2989 5.609 17.7012 6.2815 17.873 7.0905C17.6445 7.05333 17.3874 7.03475 17.1018 7.03475C16.8159 7.03475 16.5532 7.04816 16.3135 7.075C16.1648 6.69167 15.9218 6.37825 15.5845 6.13475C15.2473 5.89108 14.8539 5.76925 14.4043 5.76925C13.7989 5.76925 13.3225 5.93525 12.975 6.26725C12.6275 6.59941 12.164 7.10008 11.5845 7.76925H10.8905C10.2943 7.07308 9.8225 6.56575 9.475 6.24725C9.1275 5.92858 8.66917 5.76925 8.1 5.76925C7.49467 5.76925 6.99333 5.96792 6.596 6.36525C6.19867 6.76258 6 7.26392 6 7.86925C6 8.25458 6.1035 8.6525 6.3105 9.063C6.51767 9.47367 6.81175 9.90817 7.19275 10.3665C7.57392 10.8248 8.03608 11.3123 8.57925 11.829C9.12258 12.3457 9.73267 12.904 10.4095 13.504L9.3405 14.573ZM11.25 4.5865C11.5975 4.5865 11.8927 4.46508 12.1355 4.22225C12.3785 3.97925 12.5 3.684 12.5 3.3365C12.5 2.98917 12.3785 2.694 12.1355 2.451C11.8927 2.208 11.5975 2.0865 11.25 2.0865C10.9025 2.0865 10.6073 2.208 10.3645 2.451C10.1215 2.694 10 2.98917 10 3.3365C10 3.684 10.1215 3.97925 10.3645 4.22225C10.6073 4.46508 10.9025 4.5865 11.25 4.5865ZM14.2443 21.4135C13.9423 21.4135 13.6438 21.3758 13.3488 21.3005C13.0536 21.225 12.7688 21.1056 12.4943 20.9422C12.6322 20.7657 12.7703 20.5577 12.9083 20.318C13.0463 20.0783 13.1717 19.8576 13.2845 19.6558C13.4503 19.7449 13.6161 19.8086 13.7818 19.8468C13.9474 19.8849 14.1131 19.904 14.2788 19.904C14.8698 19.904 15.3701 19.6937 15.7797 19.273C16.1894 18.8525 16.3943 18.3525 16.3943 17.773C16.3943 17.4583 16.3324 17.1187 16.2087 16.7542C16.0849 16.3899 15.9313 15.9411 15.748 15.4077L16.1077 14.8097C16.8717 14.6636 17.6329 14.4597 18.3913 14.198C19.1496 13.9365 19.5288 13.3134 19.5288 12.3287C19.5288 11.5916 19.2638 11.0506 18.7337 10.7057C18.2036 10.3609 17.6147 10.1885 16.9673 10.1885C16.2812 10.1885 15.4809 10.3122 14.5663 10.5595C13.6516 10.807 12.5885 11.1327 11.377 11.5365L10.977 10.0672C12.2 9.67625 13.295 9.3455 14.262 9.075C15.2288 8.8045 16.1165 8.66925 16.925 8.66925C18.0045 8.66925 18.9583 8.9885 19.7865 9.627C20.6147 10.2655 21.0288 11.1661 21.0288 12.3287C21.0288 12.7684 20.9502 13.186 20.7932 13.5815C20.6362 13.9772 20.4154 14.3417 20.1308 14.675C20.8154 14.7263 21.3814 15.0187 21.8288 15.552C22.2763 16.0853 22.5 16.6878 22.5 17.3595C22.5 18.116 22.2349 18.7635 21.7048 19.302C21.1746 19.8403 20.523 20.1095 19.75 20.1095C19.3358 20.1095 18.9374 20.0169 18.5548 19.8318C18.1721 19.6464 17.8634 19.382 17.6288 19.0385C17.3531 19.7513 16.9159 20.3253 16.3173 20.7605C15.7186 21.1958 15.0276 21.4135 14.2443 21.4135ZM19.775 18.6097C20.1223 18.6097 20.4133 18.4882 20.648 18.2452C20.8827 18.0022 21 17.707 21 17.3595C21 17.0122 20.8785 16.7128 20.6355 16.4615C20.3925 16.2102 20.0973 16.0845 19.75 16.0845C19.4025 16.0845 19.1073 16.206 18.8643 16.449C18.6214 16.692 18.5 16.9872 18.5 17.3345C18.5 17.682 18.6256 17.9814 18.8768 18.2327C19.1281 18.4841 19.4275 18.6097 19.775 18.6097Z" fill="white"/>
</svg>
