<svg width="15" height="18" viewBox="0 0 15 18" fill="none" xmlns="http://www.w3.org/2000/svg">
<path d="M7.66675 7.00809C6.78446 7.00809 6.0292 6.6939 5.40098 6.06553C4.7726 5.4373 4.45841 4.68205 4.45841 3.79975C4.45841 2.91746 4.7726 2.16213 5.40098 1.53375C6.0292 0.905532 6.78446 0.591421 7.66675 0.591421C8.54904 0.591421 9.3043 0.905532 9.93252 1.53375C10.5609 2.16213 10.8751 2.91746 10.8751 3.79975C10.8751 4.68205 10.5609 5.4373 9.93252 6.06553C9.3043 6.6939 8.54904 7.00809 7.66675 7.00809ZM7.66675 5.63309C8.17091 5.63309 8.60251 5.45357 8.96154 5.09455C9.32057 4.73552 9.50008 4.30392 9.50008 3.79975C9.50008 3.29559 9.32057 2.86399 8.96154 2.50496C8.60251 2.14594 8.17091 1.96642 7.66675 1.96642C7.16258 1.96642 6.73098 2.14594 6.37196 2.50496C6.01293 2.86399 5.83342 3.29559 5.83342 3.79975C5.83342 4.30392 6.01293 4.73552 6.37196 5.09455C6.73098 5.45357 7.16258 5.63309 7.66675 5.63309ZM0.791748 17.2324V11.7887C0.791748 11.3399 0.910686 10.9241 1.14856 10.5414C1.38644 10.1588 1.71529 9.86007 2.13512 9.64511C2.90833 9.25965 3.76564 8.94118 4.70706 8.68971C5.64832 8.43824 6.63489 8.3125 7.66675 8.3125C8.69861 8.3125 9.68517 8.43824 10.6264 8.68971C11.5679 8.94118 12.4252 9.25965 13.1984 9.64511C13.6182 9.86007 13.9471 10.1588 14.1849 10.5414C14.4228 10.9241 14.5417 11.3401 14.5417 11.7894V15.5753C14.5417 16.0383 14.3813 16.4303 14.0605 16.7511C13.7397 17.0719 13.3477 17.2324 12.8846 17.2324H5.83342C5.21298 17.2324 4.69064 17.0202 4.26637 16.596C3.84211 16.1717 3.62998 15.6493 3.62998 15.0287C3.62998 14.4083 3.84211 13.8859 4.26637 13.4616C4.69064 13.0374 5.21298 12.8253 5.83342 12.8253H8.53758L9.93206 9.95013C9.57364 9.85968 9.19583 9.7933 8.7986 9.75098C8.40123 9.70866 8.02394 9.6875 7.66675 9.6875C6.67843 9.6875 5.76971 9.80652 4.94058 10.0445C4.11146 10.2824 3.39134 10.5583 2.78023 10.8721C2.58635 10.9662 2.43564 11.096 2.32808 11.2617C2.22053 11.4274 2.16675 11.6031 2.16675 11.7887V17.2324H0.791748ZM5.83342 15.8574H7.092L7.89248 14.2003H5.83342C5.60898 14.2003 5.4148 14.2822 5.25087 14.4461C5.08694 14.6101 5.00498 14.8043 5.00498 15.0287C5.00498 15.2533 5.08694 15.4475 5.25087 15.6115C5.4148 15.7754 5.60898 15.8574 5.83342 15.8574ZM8.60633 15.8574H12.8846C12.967 15.8574 13.0346 15.8309 13.0875 15.7781C13.1403 15.7252 13.1667 15.6576 13.1667 15.5753V11.7887C13.1667 11.6031 13.1101 11.4274 12.9967 11.2617C12.8832 11.096 12.7401 10.9662 12.5675 10.8721C12.3782 10.7746 12.1751 10.6791 11.9584 10.5856C11.7416 10.4923 11.5168 10.4027 11.2841 10.3168L8.60633 15.8574Z" fill="white"/>
</svg>
